Patient4_TMGait_0pt5_02_right_25_EMG.mot
version=1
nRows=23
nColumns=33
inDegrees=no
endheader
time	1LAddLong	2LGlutMax	3LGlutMed	4LIliopsoas	5LSemiMemb	6LBicFemLong	7LRecFem	8LVastMed	9LVastLat	10LGasMed	11LTibAnt	12lTibPost	13LPeroneusLong	14LSol	15LExtDigLong	16LFlexDigLong	17RAddLong	18RGlutMax	19RGlutMed	20RIliopsoas	21RSemiMemb	22RBicFemLong	23RRecFem	24RVastMed	25RVastLat	26RGasMed	27RTibAnt	28RTibPost	29RPeroneusLong	30RSol	31RExtDigLong	32RFlexDigLong
33.5	-0.00351	0.21591	-0.10468	-0.003357	-0.023956	0.068512	-0.35217	0.037689	-0.37079	0.014343	-0.19806	0.00412	0.084839	0.043488	0.7164	0.030823	-0.005341	-0.046387	-0.010223	0.010071	0.054321	0.13214	-0.159	-0.089264	0.009613	0.001984	0.21042	0.000305	-0.032806	-0.016022	-0.00412	-0.010071
33.501	-0.006714	0.20462	-0.088959	0.000305	-0.028076	0.023499	-0.19241	0.056	-0.25269	0.035248	-0.17471	0.021667	0.050507	0.071411	0.81528	0.037842	-0.011139	-0.070648	-0.039215	0.090485	0.075378	0.1535	-0.17059	-0.10391	0.017853	-0.001831	-0.18356	-0.006866	-0.1152	0.11749	0.003967	-0.016785
33.502	-0.01709	0.21316	-0.097351	0.003357	-0.063629	0.036621	-0.013123	0.048065	-0.1535	0.03067	-0.071259	0.002441	0.052338	0.075836	0.55374	0.043945	-0.019379	-0.097656	-0.054474	0.056915	0.061188	0.1474	-0.17197	-0.064392	0.00473	-0.000916	-0.23987	-0.004883	-0.035706	0.05249	-0.006104	-0.009613
33.503	-0.007782	0.17349	-0.10849	0.016937	-0.063934	0.12238	-0.022125	0.03067	-0.13412	0.036926	-0.036926	0.008392	0.043335	0.1416	0.64179	0.051422	0.006104	-0.12253	-0.000763	0.010376	0.097656	0.11505	-0.19577	-0.049286	0.02533	0.001526	-0.17395	0.001678	0.009613	0.025787	-0.003967	-0.012665
33.504	0.009766	0.19806	-0.11353	0.004578	-0.026245	0.012054	-0.020599	-0.018005	-0.036163	0.00351	0.028076	0.012665	0.07782	0.21057	-0.20401	0.038757	0.014343	-0.17685	0.010376	-0.040131	0.098267	0.045471	-0.18295	-0.094757	0.012207	0.002136	-0.10223	0.016479	0.005493	-0.004883	-0.003815	-0.009918
33.505	0.029602	0.18997	-0.078888	0.007477	0.020599	0.11032	-0.080719	-0.039978	0.061646	-0.009155	0.010834	0.013885	0.040741	0.29877	-0.085907	0.034637	0.035706	-0.19791	-0.006866	-0.093689	0.051422	-0.04776	-0.1915	-0.1329	0.000153	0.002747	0.084076	0.011292	-0.028229	-0.02533	-0.000458	-0.010376
33.506	0.026398	0.19119	-0.018616	0.009155	0.090332	0.14877	-0.050049	-0.025635	0.025787	0.000916	0.03067	0.011749	0.005188	0.3183	-0.14984	0.024719	0.028687	-0.23514	0.061493	-0.11566	0.008087	-0.095825	-0.21469	-0.078583	0.011292	0.001526	0.13321	0.008087	-0.041199	-0.095673	-0.001221	-0.006714
33.507	0.005188	0.29953	-0.059967	0.014801	0.030518	0.28198	-0.019989	-0.015259	0.025024	0.037537	0.11398	0.003357	-0.053558	0.25345	-0.22522	0.006409	0.061035	-0.28183	0.036621	-0.056458	-0.015564	-0.005646	-0.25452	-0.063324	0.01297	0.011292	-0.097961	0.00351	0.11887	-0.21286	0.004272	-0.014343
33.508	-0.000458	0.40939	-0.098724	0.018921	-0.00824	0.19745	-0.058289	-0.023499	0.11612	0.025635	0.030518	0.010223	0.019684	0.23468	-0.79041	0.002594	0.061035	-0.19577	0.017853	0.053558	0.012054	0.014648	-0.27466	-0.028839	-0.000305	0.012512	-0.037079	0.002594	0.10071	-0.25009	-0.013275	-0.006256
33.509	0.010071	0.42557	-0.090027	0.018005	-0.007935	-0.17838	-0.079803	-0.023804	0.19714	0.016937	0.030365	0.00412	0.029755	0.1796	-0.8818	-0.002899	0.082245	-0.22354	0.014191	0.18127	-0.009308	-0.049438	-0.24963	0.002747	-0.018158	0.011292	-0.25909	0.001221	0.11398	-0.22797	-0.009766	-0.010223
33.51	0.009918	0.40985	0.044098	0.027008	0.010681	-0.24612	-0.081635	-0.022278	0.15656	0.040588	0.16754	0.002747	-0.028992	0.085754	-0.30685	-0.014343	0.10864	-0.22629	-0.053253	0.26169	-0.026093	-0.094757	-0.24536	0.001984	-0.041962	0.003204	-0.1709	-0.001831	-0.059204	-0.062561	-0.002441	-0.015869
33.511	0.00824	0.35446	0.064697	0.019226	0.056305	-0.41138	-0.079346	-0.015869	0.15259	0.075531	0.40924	0.007629	-0.11627	-0.021667	-0.61676	-0.03006	0.11566	-0.25681	-0.003357	0.21652	-0.032654	-0.21423	-0.31433	-0.087585	-0.04837	0.001221	-0.084534	-0.00412	-0.10361	0.032959	-0.006561	-0.014954
33.512	0.002747	0.31418	0.071564	0.03067	0.03952	-0.28153	-0.14282	-0.000458	0.14908	0.032349	0.17532	0.014191	-0.016327	-0.086365	-0.41519	-0.001221	0.031128	-0.22385	0.065765	0.12924	-0.018616	-0.25162	-0.23895	-0.049286	-0.062714	0.00061	-0.20416	-0.003052	-0.037384	0.078735	0.000458	-0.010834
33.513	0.010834	0.26733	0.024872	-0.02594	-0.004883	0.027313	-0.17716	0.024414	0.16113	-0.008392	-0.039825	0.014038	0.018311	-0.077209	-0.12116	0.010071	-0.035095	-0.20691	0.02243	-0.016022	0.036926	-0.094452	-0.2594	-0.005951	-0.056763	0.001526	-0.57495	-0.007019	-0.027771	0.040283	-0.006714	-0.005493
33.514	0.004272	0.26703	-0.047913	-0.020447	-0.017242	0.078735	-0.16281	0.011902	0.11276	-0.018158	-0.11566	0.007935	0.011597	-0.046997	-0.27542	0.016022	-0.068359	-0.18249	-0.023193	-0.13733	0.031433	0.008392	-0.31677	0.053253	-0.051117	0.004578	-0.54565	-0.005798	-0.016632	0.02533	-0.003357	-0.004272
33.515	0.000763	0.24155	-0.055389	-0.02182	-0.032349	0.018005	-0.10925	0.002594	-0.058441	0.004578	-0.11017	0.015869	0.026855	-0.07019	-0.14236	0.009613	-0.08667	-0.16129	-0.083466	-0.19073	0.005493	-0.049133	-0.32288	0.081329	-0.048676	0.006561	0.002747	-0.006256	-0.015106	0.00061	-0.00061	-0.005341
33.516	-0.00473	0.18249	0.006256	-0.006104	0.022125	-0.11215	0.027466	0.004883	-0.16815	0.021057	0.010834	0.011902	-0.020599	-0.046082	0.012665	-0.00061	-0.11704	-0.19913	-0.054169	-0.11078	0	-0.10773	-0.32471	0.048523	-0.041809	0.003357	0.36407	-0.010223	-0.16953	0.005341	-0.001678	-0.009003
33.517	-0.003204	0.14191	0.065613	0.011597	0.075836	-0.048981	0.078125	0.005646	-0.22201	0.030823	0.018616	0.004425	-0.059509	0.066833	0.08316	-0.014343	-0.12344	-0.21255	-0.008087	-0.024719	0.049591	-0.013123	-0.28168	0.045166	-0.055695	0.001678	0.51941	-0.010071	-0.29938	0.082245	-0.003357	-0.006866
33.518	-0.011749	0.1149	0.063629	-0.008392	-0.027466	-0.054626	0.061798	0.00061	-0.20874	0.031891	0.033722	0.014954	-0.07782	0.03067	0.087585	0.001984	-0.094299	-0.16266	-0.027618	0.12268	0.080566	0.001831	-0.25971	0.103	-0.037537	-0.004883	0.448	-0.016022	-0.33218	0.093079	-0.002594	-0.005493
33.519	-0.023041	0.026398	0.08606	-0.012207	-0.05661	-0.1181	0.02533	-0.013123	-0.10666	0.037537	0.04303	0.011444	-0.073242	-0.063629	0.082092	0.001373	-0.058746	-0.11734	-0.044708	0.083923	0.10239	-0.003815	-0.23346	0.069733	-0.026855	0.002289	0.22293	-0.01358	-0.24231	0.070038	-0.001984	-0.005493
33.52	-0.017242	-0.014343	0.034637	-0.016022	0.001984	-0.14542	0.15167	-0.015106	-0.045166	0.006866	0.00946	0.014038	-0.052185	-0.016022	0.056763	-0.00412	-0.037537	-0.16266	-0.023956	-0.028076	0.12787	-0.052338	-0.26382	0.029755	0.000916	0.005188	0.12878	-0.011597	-0.10056	0.019226	-0.003967	-0.010223
33.521	-0.018768	-0.031128	-0.010376	-0.000916	0.065918	-0.44769	0.11902	-0.008545	-0.087891	-0.015259	-0.002747	0.007935	-0.062103	0.024567	0.11246	-0.016632	-0.034332	-0.15778	-0.040894	-0.027924	0.083923	-0.045471	-0.33127	0.011902	0.004425	0.00885	0.092163	-0.01358	0.045929	-0.058136	-0.00412	-0.011139
33.522	-0.014801	-0.016479	-0.047455	0.06134	0.029297	-0.49774	0.007629	0.015869	-0.15259	-0.00824	-0.023193	0.007629	-0.063934	0.084229	0.22858	-0.031433	-0.023193	-0.19898	-0.11215	-0.034332	0.07019	0.013275	-0.27908	0.029144	0.001373	0.009155	0.075836	-0.014191	0.13596	-0.033264	-0.00061	-0.011139
